<svg xmlns="http://www.w3.org/2000/svg" xml:space="preserve" x="0px" y="0px" viewBox="0 0 1395.7 250"><g fill="#5F6368"><path d="M1124.4 140.4v58.8h-18.7V54h49.5c12.6 0 23.3 4.2 32.1 12.6 8.9 8.4 13.4 18.6 13.4 30.6 0 12.3-4.5 22.6-13.4 30.8-8.7 8.3-19.3 12.4-32.1 12.4h-30.8zm0-68.5v50.7h31.2c7.4 0 13.6-2.5 18.5-7.5 5-5 7.5-11 7.5-17.9 0-6.8-2.5-12.6-7.5-17.6-4.9-5.1-11-7.7-18.5-7.7h-31.2zM1249.5 96.6c13.8 0 24.7 3.7 32.7 11.1 8 7.4 12 17.5 12 30.3v61.3h-17.9v-13.8h-.8c-7.7 11.4-18 17-30.8 17-11 0-20.1-3.2-27.5-9.7-7.4-6.5-11.1-14.6-11.1-24.3 0-10.3 3.9-18.5 11.7-24.5 7.8-6.1 18.2-9.1 31.1-9.1 11.1 0 20.2 2 27.4 6.1v-4.3c0-6.5-2.6-12-7.7-16.5s-11.2-6.8-18.1-6.8c-10.4 0-18.7 4.4-24.7 13.2l-16.4-10.3c9-13.2 22.4-19.7 40.1-19.7zm-24.1 72.2c0 4.9 2.1 8.9 6.2 12.2 4.1 3.2 9 4.9 14.5 4.9 7.8 0 14.8-2.9 21-8.7 6.2-5.8 9.2-12.6 9.2-20.5-5.8-4.6-13.9-6.9-24.3-6.9-7.6 0-13.9 1.8-19 5.5-5.1 3.6-7.6 8.1-7.6 13.5zM1395.7 99.9l-62.3 143.2h-19.3l23.1-50.1-41-93.1h20.3l29.6 71.4h.4l28.8-71.4h20.4z"/></g><g fill="#5F6368"><path d="M475.4 135.6v-22.5h75.2c.8 4 1.2 8.7 1.2 13.8 0 16.8-4.6 37.7-19.4 52.5-14.4 15-32.9 23.1-57.3 23.1-45.3 0-83.4-36.9-83.4-82.2S429.7 38 475 38c25.1 0 42.9 9.8 56.3 22.7l-15.8 15.8c-9.6-9-22.7-16-40.5-16-33.1 0-58.9 26.7-58.9 59.8S441.9 180 475 180c21.5 0 33.7-8.6 41.5-16.4 6.4-6.4 10.6-15.5 12.2-28h-53.3zM666.3 149.5c0 30.5-23.9 52.9-53.1 52.9s-53.1-22.5-53.1-52.9c0-30.7 23.9-52.9 53.1-52.9 29.3 0 53.1 22.3 53.1 52.9zm-23.2 0c0-19.1-13.8-32.1-29.9-32.1-16 0-29.9 13-29.9 32.1 0 18.8 13.8 32.1 29.9 32.1 16.1 0 29.9-13.2 29.9-32.1zM782.2 149.5c0 30.5-23.9 52.9-53.1 52.9S676 180 676 149.5c0-30.7 23.9-52.9 53.1-52.9 29.3 0 53.1 22.3 53.1 52.9zm-23.2 0c0-19.1-13.8-32.1-29.9-32.1-16 0-29.9 13-29.9 32.1 0 18.8 13.8 32.1 29.9 32.1 16 0 29.9-13.2 29.9-32.1zM893.3 99.8v95c0 39.1-23.1 55.1-50.3 55.1-25.7 0-41.1-17.2-46.9-31.3l20.2-8.4c3.6 8.6 12.4 18.8 26.7 18.8 17.4 0 28.3-10.8 28.3-31.1v-7.6h-.8c-5.2 6.4-15.2 12-27.9 12-26.5 0-50.7-23.1-50.7-52.7 0-29.9 24.3-53.1 50.7-53.1 12.6 0 22.7 5.6 27.9 11.8h.8v-8.6l22 .1zm-20.4 49.9c0-18.6-12.4-32.3-28.3-32.3-16 0-29.5 13.6-29.5 32.3 0 18.4 13.4 31.9 29.5 31.9 15.8 0 28.3-13.4 28.3-31.9zM932.7 44.2v155.1h-23.3V44.2h23.3zM1022.5 167l18 12c-5.8 8.6-19.8 23.5-44.1 23.5-30.1 0-52.5-23.3-52.5-52.9 0-31.5 22.7-52.9 49.9-52.9 27.5 0 40.9 21.9 45.3 33.7l2.4 6-70.8 29.3c5.4 10.6 13.8 16 25.7 16 11.9-.1 20.1-5.9 26.1-14.7zM967 147.9l47.3-19.7c-2.6-6.6-10.4-11.2-19.6-11.2-11.9.1-28.3 10.5-27.7 30.9z"/></g><linearGradient id="a" x1="166.3219" x2="270.0579" y1="132.1265" y2="94.3697" gradientTransform="matrix(1 0 0 -1 0 228.339)" gradientUnits="userSpaceOnUse"><stop offset="0.2" style="stop-color:#d93025"/><stop offset="0.6" style="stop-color:#ea4335"/></linearGradient><path fill="url(#a)" d="m148.8 145.3 69.9-121.1 38.1 22c24.6 14.2 33 45.6 18.8 70.2l-39.4 68.2c-8.9 15.4-28.5 20.6-43.9 11.8L157 176c-10.7-6.3-14.4-20-8.2-30.7z"/><path fill="#FDBD00" d="M141.4 61.2 54.5 211.8l38.1 22c24.6 14.2 56 5.8 70.2-18.8l56.4-97.7c8.9-15.4 3.6-35-11.8-43.9L172 53c-10.7-6.2-24.4-2.5-30.6 8.2z"/><path fill="#2DA94F" d="M218.7 24.2 191.8 8.6c-30.7-17.7-70-7.2-87.8 23.5l-50 86.6c-8.9 15.4-3.6 35 11.8 43.9l26.9 15.6c15.4 8.9 35 3.6 43.9-11.8L196.3 63c12.4-21.5 39.8-28.8 61.3-16.4"/><linearGradient id="b" x1="8.8362" x2="124.3986" y1="119.9087" y2="77.8474" gradientTransform="matrix(1 0 0 -1 0 228.339)" gradientUnits="userSpaceOnUse"><stop offset="0.2" style="stop-color:#4285f4"/><stop offset="0.8" style="stop-color:#1b74e8"/></linearGradient><path fill="url(#b)" d="M111.8 57.5 82.1 40.4c-13.3-7.6-30.2-3.1-37.8 10.1L8.5 112.1c-17.6 30.3-7.1 69.1 23.3 86.7l22.6 13 27.5 15.8 11.9 6.9C72.7 220.3 66 192 78.9 169.7l9.2-15.9 33.8-58.4c7.7-13.4 3.1-30.3-10.1-37.9z"/></svg>