<svg xmlns="http://www.w3.org/2000/svg" width="424.185" height="114.52" viewBox="0 0 424.185 114.52"><path fill="#fff" d="M86.146 21.03c-.312 0-.648.082-1.002.242L55.719 34.407c-2.48 1.117-5.592 2.25-9.857 2.25s-7.374-1.133-9.857-2.25L6.565 21.272a2.328 2.328 0 0 0-.986-.242c-.905 0-1.462.711-1.462 1.844v55.861c0 1.747 1.353 3.842 2.957 4.553.218.103 22.462 10.048 24.179 10.79 5.237 2.276 9.469 3.202 14.61 3.202 5.142 0 9.371-.926 14.606-3.203 1.719-.741 23.97-10.686 24.184-10.789 1.605-.711 2.958-2.806 2.958-4.553V22.874c0-1.133-.557-1.844-1.465-1.844"/><path fill="#009bfa" d="M45.398 0c-3.721 0-7.368.83-10.562 2.406-1.977.982-29.183 14.045-29.373 14.133C1.935 18.235 0 21.33 0 25.236v53.352c0 4.524 2.997 9.151 7.14 10.998 0 0 20.888 9.343 22.06 9.853 4.016 1.738 9.1 3.522 16.265 3.522 7.162 0 12.245-1.784 16.27-3.522 1.283-.552 22.058-9.853 22.058-9.853 4.137-1.847 7.137-6.474 7.137-10.998V25.236c0-3.908-1.937-7.001-5.47-8.697-.157-.077-27.357-13.14-29.372-14.133C52.9.83 49.254 0 45.398 0zm90.303 13.53a3.61 3.61 0 0 0-3.605 3.605V74.87c0 1.984 1.143 4.754 2.55 6.154l5.575 5.58c1.407 1.4 4.176 2.551 6.16 2.551h38.521a3.617 3.617 0 0 0 3.606-3.605v-7.992a3.615 3.615 0 0 0-3.606-3.604h-30.836a3.618 3.618 0 0 1-3.609-3.607V17.135a3.615 3.615 0 0 0-3.605-3.606h-11.15zM8.854 26.142c.277 0 .594.074.9.222L36.506 38.3c2.258 1.013 5.082 2.043 8.959 2.043 3.873 0 6.704-1.03 8.959-2.043l26.742-11.936a2.18 2.18 0 0 1 .906-.222c.83 0 1.338.643 1.338 1.673v50.772c0 1.586-1.231 3.49-2.691 4.137-.194.091-20.417 9.13-21.979 9.806-4.76 2.069-8.6 2.908-13.275 2.908-4.672 0-8.52-.84-13.276-2.908-1.561-.675-21.777-9.715-21.974-9.806-1.46-.648-2.688-2.55-2.688-4.137V27.816c0-1.03.507-1.673 1.327-1.673zM339.5 29.469c-1.625 0-3.002 1.338-3.45 2.822a32.935 32.935 0 0 0-13.325-2.793c-17.416 0-31.536 13.344-31.536 29.807 0 16.459 14.12 29.806 31.536 29.806a32.98 32.98 0 0 0 13.27-2.765 3.611 3.611 0 0 0 3.505 2.797h11.158a3.614 3.614 0 0 0 3.602-3.606V33.074a3.614 3.614 0 0 0-3.602-3.605H339.5zm-115.127.002a3.614 3.614 0 0 0-3.602 3.605v26.035c0 .064-.007.13-.007.194 0 .067.007.128.007.195v40.8c0 1.981 1.142 4.753 2.55 6.153l5.495 5.492c1.4 1.404 4.168 2.547 6.145 2.547h.57a3.608 3.608 0 0 0 3.602-3.601V86.387a32.944 32.944 0 0 0 13.17 2.724c17.415 0 31.535-13.344 31.535-29.806 0-16.463-14.12-29.805-31.535-29.805a32.905 32.905 0 0 0-13.32 2.79c-.447-1.485-1.827-2.82-3.452-2.82h-11.158zm140.178.029c-1.984 0-2.979 1.625-2.219 3.605l21.576 56.211c.095.282.02.658-.09.932l-.957 2.49c-1.614 3.873-4.133 5.778-8.045 5.778-2.571 0-4.708-.482-6.52-1.362-.89-.425-1.975.157-2.415 1.293l-4.018 10.477c-.429 1.115-.097 2.384.723 2.877.018.01.027.032.045.043l.004-.016c2.754 1.671 6.292 2.692 11.41 2.692 11.112 0 20.331-4.422 26.02-19.23l10.947-28.528 12.918-33.657c.763-1.98-.237-3.605-2.221-3.605h-11.154c-1.988 0-4.229 1.625-4.989 3.605l-11.878 30.948h-.004c-.303.809-.801.809-1.104 0h-.004l-11.883-30.948c-.76-1.98-3-3.605-4.988-3.605h-11.154zM252.303 44.209c8.322 0 15.093 6.773 15.093 15.096 0 8.322-6.77 15.093-15.093 15.093s-15.094-6.77-15.094-15.093 6.771-15.096 15.094-15.096zm70.422.002c8.322 0 15.095 6.771 15.095 15.094 0 8.322-6.773 15.095-15.095 15.095-8.323 0-15.094-6.773-15.094-15.095 0-8.323 6.77-15.094 15.094-15.094zM22.139 68.35a4.053 4.053 0 0 0-2.854 1.203 4.06 4.06 0 0 0 .035 5.726c6.937 6.814 16.139 10.578 25.91 10.578 9.78 0 18.976-3.764 25.913-10.578a4.056 4.056 0 0 0 .035-5.726 4.052 4.052 0 0 0-5.721-.045c-5.407 5.322-12.59 8.248-20.227 8.248-7.643 0-14.823-2.926-20.222-8.248a4.03 4.03 0 0 0-2.87-1.158zm181.547 5.607c-.546 0-1.084.116-1.555.348-.289.15-4.31 2.08-4.338 2.093-.52.25-.805.703-.805 1.284v7.875c0 .664.444 1.352 1.053 1.623l.584.26c.893.404 2.5 1.12 2.676 1.195.59.257 1.34.521 2.402.521 1.055 0 1.806-.264 2.397-.521.193-.081 2.09-.929 2.902-1.291l.357-.164c.609-.271 1.057-.959 1.057-1.623v-7.875c0-.58-.29-1.035-.81-1.291a613.878 613.878 0 0 1-4.336-2.086 3.57 3.57 0 0 0-1.584-.348z"/></svg>