<?xml version="1.0" ?><!DOCTYPE svg  PUBLIC '-//W3C//DTD SVG 1.1//EN'  'http://www.w3.org/Graphics/SVG/1.1/DTD/svg11.dtd'><svg xmlns="http://www.w3.org/2000/svg" xmlns:xlink="http://www.w3.org/1999/xlink" xmlns:serif="http://www.serif.com/" width="100%" height="100%" viewBox="0 0 512 512" version="1.1" xml:space="preserve" style="fill-rule:evenodd;clip-rule:evenodd;stroke-linejoin:round;stroke-miterlimit:2;"><g transform="matrix(1,0,0,1,-1124,-2248)"><g id="Icons"><path d="M1319.47,2557.01C1319.35,2556.89 1319.22,2556.77 1319.09,2556.66C1317.45,2555.22 1315.63,2554.01 1313.52,2553.15C1309.27,2551.42 1304.77,2550.77 1300.92,2550.98C1303.42,2552 1305.96,2553.59 1308.4,2555.62C1304.03,2554.47 1299.74,2554.12 1295.23,2553.94C1298.93,2555.57 1302.33,2557.29 1305.73,2559.54C1305.82,2559.6 1305.9,2559.66 1305.99,2559.72C1301.43,2560.98 1297.51,2563.7 1293.1,2567.15C1297.45,2565.76 1301.24,2564.75 1305.13,2564.68C1306.93,2564.64 1308.61,2565.02 1310.44,2565.57C1310.77,2565.67 1311.1,2565.79 1311.43,2565.91C1311.34,2566.05 1311.24,2566.19 1311.14,2566.33C1309.66,2568.45 1308.47,2570.08 1306.91,2571.08C1304.59,2572.55 1302.33,2572.93 1299.7,2572.26C1302.2,2574.35 1304.92,2574.98 1308.18,2574.51C1310.26,2574.21 1312.35,2573.32 1314.66,2571.83C1322.21,2578.64 1329.45,2581.05 1336.08,2579.57C1341.87,2578.28 1347.52,2573.83 1352.63,2565.7C1353.63,2566.55 1354.72,2567.4 1355.83,2568.14C1353.72,2570.92 1350.99,2572.93 1347.59,2574.11C1346.1,2574.63 1345.05,2575.97 1344.92,2577.55L1344.63,2580.87C1342.6,2580.53 1340.63,2580.39 1338.64,2580.45C1333.48,2580.63 1328.82,2581.82 1323.97,2583.29C1328,2583.6 1331.78,2584.11 1335.73,2585.13C1335.83,2585.15 1335.93,2585.18 1336.03,2585.21C1332.14,2587.89 1329.33,2591.75 1326.3,2596.46C1329.95,2593.71 1333.2,2591.51 1336.85,2590.17C1338.54,2589.55 1340.25,2589.35 1342.16,2589.27C1342.51,2589.26 1342.85,2589.26 1343.21,2589.27C1343.16,2589.43 1343.12,2589.6 1343.07,2589.76C1342.37,2592.25 1341.78,2594.18 1340.63,2595.63C1338.93,2597.78 1336.91,2598.89 1334.21,2599.12C1337.26,2600.27 1340.03,2599.97 1342.96,2598.45C1343.14,2598.36 1343.32,2598.26 1343.5,2598.16C1343.94,2599.65 1344.63,2600.85 1345.52,2601.8C1347.11,2603.48 1349.59,2604.55 1353.33,2604.59C1354.63,2610.49 1357.54,2613.46 1360.87,2614.4C1363.66,2615.18 1367.36,2614.52 1371.67,2612.14C1373.58,2616.01 1375.99,2618.68 1378.77,2620.1C1382.01,2621.76 1385.93,2621.97 1390.59,2620.04C1392.23,2622.72 1393.82,2624.65 1395.29,2625.93C1397.26,2627.64 1399.19,2628.4 1400.99,2628.56C1403.01,2628.73 1404.98,2628.17 1406.83,2626.8C1407.77,2626.12 1408.69,2625.18 1409.59,2624.02C1413.19,2627.06 1416.17,2628.91 1418.48,2629.69C1421.66,2630.77 1424.13,2630.26 1425.96,2628.9C1426.93,2628.18 1427.8,2627.06 1428.44,2625.5C1432.3,2627.46 1435.84,2627.65 1438.75,2626.68C1442,2625.59 1444.79,2622.93 1446.56,2618.83C1451.02,2620.19 1454.55,2619.21 1456.81,2617.26C1458.58,2615.74 1459.8,2613.38 1460.1,2610.48C1465.94,2611.45 1469.96,2609.54 1471.82,2606.88C1473.57,2604.37 1473.95,2600.43 1471.91,2596.08C1473.28,2595.74 1474.42,2595.33 1475.36,2594.85C1477.62,2593.72 1478.97,2592.2 1479.7,2590.52C1480.71,2588.18 1480.58,2585.24 1478.76,2581.87C1478.23,2580.88 1477.52,2579.83 1476.66,2578.71C1476.86,2578.68 1477.04,2578.66 1477.22,2578.63C1480.49,2578.06 1482.34,2576.37 1483.21,2574.45C1483.91,2572.91 1484.05,2571.04 1483.32,2568.94C1482.38,2566.26 1479.59,2562.74 1474.58,2559.42C1477.99,2560.15 1481.53,2560.62 1485.21,2560.82C1485.75,2560.85 1486.28,2560.78 1486.78,2560.6C1492.03,2558.73 1495.82,2555.85 1498.43,2552.16C1502.6,2552.12 1506,2550.57 1508.68,2547.61C1513.88,2546.85 1518.51,2544.5 1522.57,2540.61C1527.14,2541.44 1531.68,2540.71 1536.19,2538.5C1541.16,2540.09 1546.12,2539.99 1551.07,2538.54C1556.45,2541.65 1561.98,2542.6 1567.63,2542.05C1572.6,2545.43 1575.36,2547.23 1580.79,2547.22C1582.27,2547.22 1583.6,2546.4 1584.29,2545.14C1587.18,2547.49 1590.25,2549.51 1593.24,2550.82C1594.66,2551.44 1596.33,2551.18 1597.49,2550.14C1598.66,2549.11 1599.12,2547.49 1598.67,2546C1598.46,2545.32 1598.25,2544.62 1598.02,2543.92C1601.47,2546.09 1604.76,2547.99 1607.18,2549.66C1608.63,2550.67 1610.56,2550.6 1611.94,2549.51C1613.32,2548.42 1613.82,2546.56 1613.18,2544.92C1610.46,2537.94 1606.17,2531.76 1600.95,2525.95C1604.72,2528.38 1608.5,2530.81 1612.25,2533.15C1613.54,2533.96 1615.18,2533.96 1616.48,2533.15C1617.77,2532.35 1618.5,2530.87 1618.34,2529.35C1617.6,2522.01 1613.12,2515.16 1606.47,2508.88C1610.04,2510.67 1613.51,2512.38 1616.83,2513.93C1618.31,2514.61 1620.06,2514.34 1621.25,2513.22C1622.44,2512.1 1622.84,2510.38 1622.25,2508.85C1619.02,2500.5 1612.15,2493.66 1603.35,2488.03C1600.63,2486.28 1597.73,2484.66 1594.7,2483.12C1595.31,2483.24 1595.92,2483.35 1596.53,2483.46C1606.8,2485.34 1616.13,2486.59 1620.67,2485.82C1622.21,2485.56 1623.46,2484.42 1623.86,2482.91C1624.27,2481.4 1623.76,2479.79 1622.55,2478.8C1613.33,2471.15 1600.5,2466.82 1587.08,2463.62C1591.94,2463.1 1596.7,2463 1600.81,2464.12C1602.72,2464.64 1604.73,2463.67 1605.52,2461.85C1606.32,2460.03 1605.65,2457.9 1603.96,2456.86C1594.58,2451.05 1583.12,2448.04 1570.46,2446.53C1553.75,2444.55 1534.87,2445.16 1516.09,2444.81C1516.47,2442.62 1516.62,2440.54 1516.57,2438.56C1516.54,2437.37 1515.98,2436.26 1515.06,2435.53C1514.13,2434.79 1512.92,2434.5 1511.76,2434.74C1495.1,2438.18 1478.82,2439.19 1462.89,2437.99C1461.65,2437.89 1460.43,2438.39 1459.6,2439.32C1444.06,2456.87 1428.97,2470.03 1414.38,2477.5C1401.08,2484.31 1388.27,2486.31 1376,2482.25L1376,2482.25C1363.02,2454.52 1346.72,2428.1 1324.79,2403.9C1324.34,2403.4 1323.77,2403.03 1323.13,2402.81C1266.43,2383.21 1208.97,2367.98 1145.78,2385.32C1144.05,2385.79 1142.85,2387.35 1142.84,2389.14C1142.82,2390.93 1144,2392.51 1145.71,2393.02C1154.45,2395.58 1163.59,2397.68 1173.08,2399.36C1161.53,2401.25 1150.08,2404.02 1138.75,2407.74C1137.01,2408.31 1135.88,2409.99 1136.01,2411.83C1136.14,2413.66 1137.51,2415.16 1139.32,2415.48C1148.77,2417.12 1158.43,2418.01 1168.25,2418.23C1160.09,2421.39 1152.21,2425.21 1144.64,2429.81C1143.11,2430.74 1142.39,2432.57 1142.87,2434.3C1143.35,2436.02 1144.91,2437.22 1146.7,2437.23C1153.15,2437.25 1159.71,2436.88 1166.36,2436.16C1161.48,2439.07 1156.76,2442.36 1152.24,2446.12C1150.91,2447.22 1150.44,2449.06 1151.07,2450.66C1151.71,2452.27 1153.3,2453.29 1155.02,2453.19C1164.8,2452.64 1174.83,2451.22 1185.11,2448.94C1179.84,2451.96 1174.51,2454.73 1169.12,2457.28C1167.51,2458.04 1166.59,2459.77 1166.88,2461.53C1167.16,2463.29 1168.57,2464.65 1170.34,2464.86C1178.16,2465.82 1186.69,2464.89 1195.76,2462.46C1194.99,2463.24 1194.24,2464.03 1193.52,2464.83C1192.6,2465.83 1192.26,2467.23 1192.6,2468.53C1192.94,2469.84 1193.92,2470.89 1195.2,2471.32C1202.13,2473.64 1209.2,2473.67 1216.39,2471.53C1216.32,2472.58 1216.35,2473.68 1216.52,2474.83C1216.69,2476.06 1217.43,2477.14 1218.52,2477.75C1222.93,2480.23 1227.53,2481.33 1232.3,2481.13C1232.63,2482.11 1233.21,2483.08 1234.07,2484.02C1234.38,2484.36 1234.76,2484.65 1235.17,2484.87C1239.44,2487.08 1243.77,2487.68 1248.13,2487.26C1251.68,2491.6 1256.76,2493.47 1263.12,2493.19C1267.18,2498.25 1272.83,2501.17 1280.24,2501.68C1283.02,2507.91 1288.36,2511.8 1296.88,2512.64C1297.07,2515.1 1297.88,2517.12 1299.16,2518.76C1300.65,2520.69 1302.9,2522.16 1305.89,2523.06C1306.56,2524.88 1307.63,2526.28 1308.98,2527.35C1310.36,2528.43 1312.09,2529.18 1314.15,2529.53C1315.45,2531.18 1316.98,2532.2 1318.61,2532.73C1319.62,2533.06 1320.69,2533.21 1321.83,2533.18C1323.55,2536.59 1326.38,2539.09 1330.21,2540.75C1328.27,2545.73 1326.24,2549.94 1324.04,2552.99C1322.54,2555.06 1321.13,2556.64 1319.47,2557.01ZM1367.1,2482.14C1354.87,2456.68 1339.65,2432.39 1319.55,2410.03C1269.43,2392.76 1218.72,2378.87 1163.73,2389.36C1180.04,2392.94 1197.53,2395.11 1215.93,2396.22C1216.11,2396.24 1216.28,2396.26 1216.45,2396.29C1216.92,2396.35 1217.68,2396.47 1218.63,2396.64C1220.33,2396.96 1222.54,2397.46 1224.96,2398.04C1231.39,2399.56 1238.51,2401.48 1238.51,2401.48C1238.51,2401.48 1231.23,2402.6 1224.67,2403.41C1222.19,2403.71 1219.94,2403.97 1218.22,2404.09C1217.25,2404.17 1216.48,2404.19 1216.01,2404.2C1215.89,2404.21 1215.77,2404.22 1215.64,2404.22C1197.1,2404.01 1178.79,2405.8 1160.77,2409.92C1177.23,2410.92 1194.21,2409.89 1211.57,2407.4C1211.62,2407.4 1211.67,2407.39 1211.72,2407.39L1211.74,2407.38C1212.11,2407.34 1212.47,2407.35 1212.83,2407.41C1213.07,2407.43 1213.36,2407.45 1213.68,2407.49C1214.86,2407.62 1216.32,2407.87 1218.01,2408.17C1222.54,2409 1227.33,2410.1 1227.33,2410.1C1227.33,2410.1 1222.79,2411.97 1218.46,2413.54C1216.84,2414.12 1215.44,2414.6 1214.3,2414.93C1213.99,2415.01 1213.71,2415.09 1213.47,2415.14C1213.23,2415.22 1212.99,2415.28 1212.74,2415.32L1212.72,2415.32C1195.96,2417.64 1179.9,2421.67 1164.9,2428.27C1177.98,2426.89 1191.43,2424.12 1205.1,2420.5C1205.13,2420.49 1205.16,2420.49 1205.2,2420.48L1205.23,2420.47C1205.64,2420.37 1206.05,2420.35 1206.45,2420.38C1206.62,2420.37 1206.8,2420.37 1207,2420.37C1208.09,2420.37 1209.44,2420.45 1211.02,2420.57C1215.28,2420.89 1219.74,2421.46 1219.74,2421.46C1219.74,2421.46 1215.9,2423.79 1212.15,2425.83C1210.75,2426.59 1209.56,2427.22 1208.56,2427.66C1208.38,2427.74 1208.21,2427.82 1208.06,2427.88C1207.78,2428.03 1207.49,2428.15 1207.17,2428.23C1193.87,2431.76 1181.08,2436.49 1169.32,2443.71C1181.91,2441.89 1194.9,2438.66 1208.31,2434C1208.44,2433.95 1208.58,2433.91 1208.71,2433.88C1209.12,2433.76 1209.71,2433.59 1210.44,2433.41C1211.93,2433.04 1213.88,2432.64 1216.07,2432.22C1221.85,2431.11 1228.29,2430.11 1228.29,2430.11C1228.29,2430.11 1223.01,2433.92 1218.11,2437.2C1216.27,2438.43 1214.6,2439.52 1213.28,2440.31C1212.67,2440.67 1212.16,2440.95 1211.79,2441.14C1204.36,2446.57 1196.78,2451.48 1189.07,2455.89C1198.57,2453.91 1208.79,2449.89 1219.52,2444.57C1219.53,2444.56 1219.55,2444.55 1219.57,2444.54L1219.59,2444.53C1219.78,2444.45 1219.97,2444.37 1220.16,2444.32C1220.6,2444.16 1221.3,2443.91 1222.2,2443.63C1223.82,2443.14 1225.97,2442.56 1228.35,2441.96C1234.66,2440.35 1241.73,2438.78 1241.73,2438.78C1241.73,2438.78 1235.93,2443.12 1230.6,2446.85C1228.58,2448.26 1226.75,2449.51 1225.31,2450.42C1224.51,2450.92 1223.86,2451.29 1223.45,2451.52C1223.4,2451.56 1223.34,2451.6 1223.28,2451.63C1216.25,2455.61 1210,2460.07 1204.59,2465.04C1210.8,2465.37 1217.13,2463.44 1223.59,2459.58C1223.73,2459.49 1223.88,2459.42 1224.03,2459.35C1224.41,2459.15 1224.98,2458.87 1225.69,2458.55C1227.1,2457.91 1228.98,2457.15 1231.07,2456.33C1236.63,2454.15 1242.86,2451.95 1242.86,2451.95C1242.86,2451.95 1238.28,2456.7 1233.98,2460.85C1232.37,2462.42 1230.89,2463.81 1229.72,2464.83C1229.13,2465.34 1228.64,2465.74 1228.3,2466C1228.28,2466.02 1228.25,2466.04 1228.23,2466.06C1226.28,2467.72 1224.78,2469.53 1224.44,2471.75C1228.09,2473.29 1231.92,2473.52 1235.91,2472.59C1236.7,2472.25 1237.63,2471.92 1238.77,2471.54C1242.22,2470.39 1245.74,2469.44 1245.74,2469.44C1245.74,2469.44 1244.02,2472.66 1242.12,2475.76C1241.49,2476.78 1240.96,2477.62 1240.45,2478.32C1240.43,2478.36 1240.41,2478.4 1240.38,2478.45C1243.01,2479.45 1245.68,2479.56 1248.36,2479.18C1248.98,2478.69 1249.71,2478.17 1250.57,2477.57C1253.65,2475.42 1256.89,2473.42 1256.89,2473.42C1256.89,2473.42 1256.01,2477.12 1254.93,2480.72C1254.76,2481.29 1254.6,2481.82 1254.44,2482.3C1256.78,2484.93 1260.3,2485.56 1264.56,2485.05C1266.07,2484.87 1267.54,2485.56 1268.38,2486.83C1271.48,2491.55 1276.34,2493.84 1282.99,2493.75C1284.77,2493.73 1286.36,2494.89 1286.87,2496.6C1288.57,2502.24 1293.25,2504.93 1301.08,2504.81C1302.29,2504.79 1303.44,2505.32 1304.21,2506.25C1304.99,2507.18 1305.3,2508.4 1305.06,2509.59C1304.7,2511.42 1304.69,2512.84 1305.48,2513.85C1306.34,2514.96 1307.88,2515.45 1309.84,2515.77C1311.59,2516.06 1312.94,2517.47 1313.15,2519.23C1313.24,2519.93 1313.39,2520.49 1313.75,2520.89C1314.37,2521.59 1315.4,2521.71 1316.61,2521.76C1318.01,2521.82 1319.28,2522.61 1319.96,2523.84C1320.3,2524.48 1320.61,2524.97 1321.11,2525.13C1321.66,2525.31 1322.28,2525.11 1322.97,2524.85C1324.04,2524.44 1325.24,2524.52 1326.25,2525.05C1327.26,2525.58 1328,2526.52 1328.27,2527.64C1329.19,2531.37 1332.15,2533.36 1336.34,2534.38C1337.44,2534.64 1338.38,2535.37 1338.92,2536.36C1339.46,2537.36 1339.55,2538.54 1339.17,2539.61C1335.91,2548.74 1332.33,2556.05 1328.42,2560.25C1326.05,2562.79 1323.52,2564.34 1320.87,2564.88C1320.81,2565.24 1320.7,2565.61 1320.54,2565.96C1320.53,2565.97 1320.53,2565.99 1320.53,2566.01C1320.49,2566.17 1320.46,2566.28 1320.46,2566.28C1325.4,2570.67 1329.94,2572.75 1334.34,2571.77C1339.45,2570.62 1343.87,2565.67 1348.2,2557.32C1348.83,2556.11 1350.03,2555.3 1351.39,2555.18C1352.75,2555.05 1354.08,2555.63 1354.91,2556.71C1355.78,2557.82 1357.54,2559.61 1359.44,2561.01C1360.43,2561.74 1361.43,2562.4 1362.34,2562.6C1363.54,2562.86 1364.56,2563.66 1365.09,2564.77C1365.63,2565.88 1365.62,2567.17 1365.08,2568.28C1362.25,2574.02 1358.13,2578.17 1352.68,2580.68L1352.42,2583.65C1352.41,2583.8 1352.39,2583.96 1352.36,2584.11C1352.17,2585.03 1351.99,2585.9 1351.84,2586.73C1351.83,2587.11 1351.77,2587.5 1351.65,2587.88L1351.62,2587.94C1351.24,2590.13 1351,2591.99 1350.96,2593.56C1350.94,2594.8 1350.82,2595.75 1351.34,2596.31C1351.62,2596.6 1352.09,2596.57 1352.66,2596.6C1353.33,2596.64 1354.08,2596.62 1354.92,2596.53C1355.75,2595.76 1356.83,2594.86 1358.07,2593.86C1361.62,2590.97 1365.55,2588.07 1365.55,2588.07C1365.55,2588.07 1364.04,2592.71 1362.44,2597C1361.84,2598.59 1361.3,2599.96 1360.82,2601.03C1361,2602.56 1361.29,2603.85 1361.69,2604.9C1362.05,2605.81 1362.37,2606.51 1363.04,2606.7C1363.77,2606.9 1364.61,2606.65 1365.59,2606.26C1367.04,2605.7 1368.62,2604.77 1370.36,2603.53C1370.48,2603.24 1370.63,2602.93 1370.8,2602.59C1371.49,2601.15 1372.47,2599.33 1373.57,2597.31C1376.51,2591.95 1379.96,2586.13 1379.96,2586.13C1379.96,2586.13 1379.41,2592.88 1378.7,2598.94C1378.43,2601.23 1378.17,2603.29 1377.9,2604.85C1377.84,2605.23 1377.78,2605.58 1377.72,2605.88C1378.9,2609.36 1380.29,2611.89 1382.41,2612.98C1384.15,2613.87 1386.19,2613.45 1388.72,2612.11C1388.94,2611.11 1389.14,2610.11 1389.34,2609.11C1389.85,2606.47 1390.34,2603.94 1390.67,2601.32C1391.24,2596.75 1391.56,2592.37 1391.69,2587.78C1393.36,2593.15 1394.82,2598.35 1395.67,2603.95C1396.07,2606.58 1396.3,2609.18 1396.31,2611.89C1396.32,2612.54 1396.29,2613.2 1396.25,2613.85C1397.54,2616.25 1398.75,2618.05 1399.92,2619.29C1400.58,2619.99 1401.08,2620.53 1401.67,2620.59C1402.18,2620.63 1402.47,2620.09 1402.91,2619.57C1403.61,2618.77 1404.26,2617.73 1404.91,2616.5C1405.05,2615.56 1405.16,2614.63 1405.24,2613.7C1405.43,2611.57 1405.61,2609.58 1405.58,2607.49C1405.52,2603.76 1405.22,2600.28 1404.73,2596.58C1407.11,2600.56 1409.25,2604.35 1410.85,2608.72C1411.62,2610.81 1412.15,2612.9 1412.5,2615.16C1412.54,2615.44 1412.57,2615.72 1412.6,2616C1414.84,2618.07 1416.8,2619.67 1418.5,2620.78C1419.38,2621.36 1420.51,2621.82 1421.16,2622.07C1421.31,2621.34 1421.54,2619.99 1421.51,2618.73C1421.21,2616.06 1420.79,2613.46 1420.34,2610.88C1419.6,2606.59 1418.78,2602.44 1417.75,2598.32C1415.96,2591.18 1413.85,2584.35 1411.56,2577.47C1415.99,2585.06 1420.28,2592.6 1423.85,2600.85C1425.49,2604.64 1426.94,2608.52 1428.15,2612.62C1428.51,2613.86 1428.82,2615.12 1429.12,2616.39C1431.86,2618.72 1434.2,2619.77 1436.21,2619.1C1438.08,2618.47 1439.19,2616.48 1439.88,2613.75L1439.87,2613.74C1439.38,2612.58 1438.83,2611.07 1438.22,2609.34C1436.6,2604.72 1435.07,2599.66 1435.07,2599.66C1435.07,2599.66 1439.11,2603.07 1442.71,2606.38C1444.06,2607.62 1445.23,2608.72 1446.1,2609.64C1446.29,2609.83 1446.45,2610.01 1446.6,2610.17C1447.75,2610.81 1448.79,2611.22 1449.73,2611.39C1450.5,2611.54 1451.15,2611.57 1451.59,2611.2C1451.93,2610.9 1452.07,2610.42 1452.14,2609.88C1452.28,2608.91 1452.15,2607.78 1451.78,2606.56C1450.9,2605.2 1449.99,2603.88 1449.08,2602.56C1447.4,2600.08 1445.79,2597.71 1444.05,2595.37C1441.01,2591.29 1437.99,2587.5 1434.78,2583.68C1439.88,2586.95 1444.81,2590.17 1449.67,2594.04C1451.9,2595.82 1454.04,2597.68 1456.12,2599.74C1456.7,2600.33 1457.26,2600.94 1457.81,2601.56C1460.11,2602.48 1462.06,2602.9 1463.62,2602.81C1464.35,2602.77 1464.96,2602.72 1465.26,2602.3C1465.55,2601.89 1465.39,2601.32 1465.2,2600.67C1464.76,2599.16 1463.66,2597.5 1461.98,2595.76C1461.97,2595.75 1461.96,2595.74 1461.95,2595.73C1461.64,2595.44 1461.19,2595.01 1460.66,2594.47C1459.59,2593.37 1458.26,2591.87 1456.79,2590.2C1452.9,2585.75 1448.78,2580.69 1448.78,2580.69C1448.78,2580.69 1454.75,2583.34 1460.06,2585.92C1462.06,2586.9 1463.85,2587.79 1465.19,2588.54C1465.43,2588.67 1465.65,2588.8 1465.85,2588.91C1468.08,2588.76 1469.83,2588.46 1471.15,2587.97C1471.71,2587.76 1472.2,2587.7 1472.36,2587.34C1472.49,2587.05 1472.22,2586.74 1472.05,2586.34C1471.49,2585.04 1470.44,2583.61 1469.03,2582C1467.43,2580.17 1465.37,2578.18 1462.94,2576.04C1461.52,2575.15 1460.1,2574.35 1458.68,2573.56C1456.07,2572.12 1453.56,2570.79 1450.94,2569.64C1446.26,2567.57 1441.71,2565.94 1436.95,2564.41C1443.06,2564.48 1448.99,2564.66 1455.23,2565.75C1458.08,2566.25 1460.88,2566.94 1463.75,2567.92C1464.76,2568.27 1465.74,2568.69 1466.73,2569.12C1470.17,2570.31 1472.88,2570.86 1474.88,2570.83C1475.01,2570.82 1475.15,2570.81 1475.3,2570.8C1475.08,2570.44 1474.82,2570.05 1474.54,2569.74C1473.42,2568.46 1471.78,2567.12 1469.66,2565.77C1456.53,2557.41 1441.64,2553.64 1425.59,2552.89C1424.02,2552.82 1422.63,2551.83 1422.06,2550.36C1421.48,2548.89 1421.82,2547.22 1422.92,2546.1C1428.12,2540.79 1430.56,2534.61 1431.15,2527.84C1431.29,2526.2 1432.43,2524.81 1434.02,2524.35C1435.6,2523.89 1437.31,2524.45 1438.31,2525.76C1450.32,2541.46 1465.31,2551.45 1484.83,2552.78C1487.88,2551.58 1490.17,2549.88 1491.78,2547.7C1491.21,2546.31 1490.55,2544.51 1489.84,2542.5C1487.88,2536.95 1485.93,2530.75 1485.93,2530.75C1485.93,2530.75 1490.48,2535.39 1494.46,2539.74C1495.95,2541.37 1497.28,2542.86 1498.25,2544.04C1498.28,2544.07 1498.31,2544.11 1498.33,2544.14C1499.9,2544.09 1501.24,2543.59 1502.34,2542.62C1502.26,2542.2 1502.19,2541.75 1502.12,2541.26C1501.58,2537.72 1501.25,2534.15 1501.25,2534.15C1501.25,2534.15 1504.1,2536.31 1506.82,2538.65C1507.23,2539 1507.6,2539.32 1507.94,2539.63C1511.14,2539.06 1513.99,2537.58 1516.54,2535.29C1516.53,2535.25 1516.51,2535.21 1516.5,2535.17C1515.76,2533.34 1514.87,2530.88 1513.92,2528.18C1511.42,2521.05 1508.82,2512.97 1508.82,2512.97C1508.82,2512.97 1514.12,2519.6 1518.66,2525.63C1520.39,2527.91 1521.95,2530.02 1523.07,2531.64C1523.34,2532.03 1523.58,2532.38 1523.78,2532.7C1526.26,2533.17 1528.72,2532.89 1531.16,2531.97C1531,2531.28 1530.84,2530.53 1530.67,2529.74C1529.69,2525.12 1528.86,2520.12 1528.86,2520.12C1528.86,2520.12 1532.36,2523.77 1535.48,2527.32C1536.64,2528.64 1537.64,2529.81 1538.38,2530.78L1538.39,2530.8C1541.32,2531.78 1544.25,2531.87 1547.17,2531.27C1547.08,2530.31 1546.99,2529.24 1546.9,2528.09C1546.49,2522.79 1546.27,2516.99 1546.27,2516.99C1546.27,2516.99 1549.37,2521.89 1552.04,2526.49C1553.04,2528.22 1553.91,2529.76 1554.53,2530.99C1554.6,2531.14 1554.66,2531.28 1554.73,2531.41C1557.9,2533.31 1561.15,2534.14 1564.46,2534.19C1564.38,2530.58 1564.5,2527.03 1564.5,2527.03C1564.5,2527.03 1567.1,2529.76 1569.5,2532.59C1570.25,2533.48 1570.88,2534.24 1571.39,2534.93C1574.04,2536.77 1575.69,2538.18 1577.87,2538.83L1578.43,2536.87C1578.82,2535.51 1579.89,2534.45 1581.26,2534.09C1582.63,2533.73 1584.09,2534.13 1585.09,2535.12C1585.45,2535.48 1585.82,2535.84 1586.19,2536.19C1585.48,2534.82 1584.73,2533.51 1583.94,2532.31C1583.91,2532.27 1583.88,2532.22 1583.86,2532.18C1583.72,2532.01 1583.58,2531.8 1583.42,2531.58C1582.77,2530.64 1582.02,2529.41 1581.17,2527.98C1578.9,2524.14 1576.68,2519.94 1576.68,2519.94C1576.68,2519.94 1580.96,2521.99 1584.9,2524.1C1586.37,2524.89 1587.62,2525.58 1588.59,2526.19C1588.82,2526.34 1589.02,2526.48 1589.2,2526.6C1589.59,2526.81 1589.94,2527.09 1590.25,2527.43C1590.32,2527.51 1590.4,2527.6 1590.47,2527.69C1592.38,2530.14 1594.95,2532.32 1597.7,2534.29C1589.49,2524.02 1577.75,2515.33 1566.39,2505.6C1566.29,2505.51 1566.19,2505.41 1566.09,2505.32C1566,2505.24 1565.91,2505.16 1565.81,2505.07C1565.02,2504.38 1564.12,2503.48 1563.06,2502.39C1560.2,2499.44 1557.38,2496.22 1557.38,2496.22C1557.38,2496.22 1561.61,2496.85 1565.64,2497.66C1567.13,2497.97 1568.38,2498.24 1569.39,2498.53C1569.51,2498.56 1569.63,2498.6 1569.74,2498.63C1570.05,2498.69 1570.36,2498.79 1570.66,2498.92C1581.43,2503.85 1593.34,2511.55 1605.28,2519.23C1603.74,2517.35 1601.92,2515.52 1599.92,2513.72C1590.4,2505.15 1576.74,2497.62 1565.66,2490.59C1565.47,2490.51 1565.26,2490.41 1565.04,2490.29C1564.03,2489.78 1562.8,2489.06 1561.39,2488.21C1557.6,2485.93 1553.71,2483.31 1553.71,2483.31C1553.71,2483.31 1558.39,2483.06 1562.82,2483.02C1564.46,2483.01 1565.88,2483.02 1567.01,2483.1C1567.27,2483.11 1567.5,2483.13 1567.71,2483.16C1568.08,2483.16 1568.45,2483.21 1568.81,2483.31L1568.85,2483.32C1568.87,2483.33 1568.9,2483.34 1568.92,2483.34C1580.6,2486.99 1593.42,2493.41 1605.44,2499.44C1603.49,2497.78 1601.33,2496.23 1599.04,2494.76C1587.25,2487.22 1571.77,2481.93 1558.34,2477.33C1558.29,2477.31 1558.25,2477.3 1558.2,2477.28C1557.87,2477.18 1557.44,2477.05 1556.93,2476.87C1555.66,2476.43 1554.07,2475.78 1552.27,2475.02C1547.48,2473.01 1542.35,2470.61 1542.35,2470.61C1542.35,2470.61 1547.98,2470.03 1553.17,2469.72C1555.12,2469.6 1556.84,2469.51 1558.18,2469.51C1558.71,2469.51 1559.16,2469.53 1559.5,2469.55C1566.25,2469.17 1583.15,2472.88 1597.97,2475.59C1599.39,2475.85 1600.8,2476.11 1602.17,2476.35C1589.96,2471.57 1575.47,2469.27 1562.28,2466.64C1562.1,2466.6 1561.92,2466.56 1561.76,2466.5C1561.43,2466.41 1561.01,2466.3 1560.53,2466.15C1559.26,2465.76 1557.67,2465.18 1555.87,2464.49C1551.08,2462.68 1545.96,2460.49 1545.96,2460.49C1545.96,2460.49 1551.47,2459.69 1556.57,2459.16C1558.48,2458.96 1560.16,2458.8 1561.49,2458.75C1562,2458.73 1562.43,2458.72 1562.77,2458.73C1562.84,2458.72 1562.91,2458.72 1562.98,2458.72C1567.98,2458.62 1574.33,2457.31 1580.84,2456.35C1574.48,2454.93 1567.64,2454.13 1560.49,2453.66C1544.84,2452.62 1527.76,2453.18 1510.93,2452.7C1509.68,2452.66 1508.52,2452.04 1507.79,2451.02C1507.06,2450.01 1506.85,2448.71 1507.22,2447.51C1507.64,2446.15 1507.97,2444.84 1508.19,2443.58C1493.26,2446.24 1478.63,2447.03 1464.27,2446.1C1448.41,2463.79 1432.93,2476.99 1418.02,2484.62C1402.31,2492.67 1387.15,2494.64 1372.68,2489.57C1361.92,2491.12 1351.43,2489.95 1342.25,2489.99C1334.33,2490.02 1327.45,2490.81 1322.81,2496.7C1322.69,2496.85 1322.56,2496.99 1322.42,2497.13L1322.42,2497.14C1322.07,2497.49 1321.65,2497.76 1321.21,2497.95C1320.07,2498.64 1319.04,2499.35 1318.11,2500.15C1316.84,2501.24 1315.69,2502.22 1314.87,2503.52C1313.09,2506.32 1312.29,2509.42 1312.77,2513.45C1310.41,2509.38 1309.95,2505.65 1310.65,2501.87C1311.18,2499.02 1312.56,2496.43 1314.59,2493.82C1315.16,2493.08 1315.83,2492.41 1316.54,2491.73C1321.6,2485.32 1328.43,2482.89 1336.51,2482.21C1345.42,2481.47 1356.03,2483.03 1367.1,2482.14ZM1450.09,2548.56C1445.58,2545.33 1441.37,2541.52 1437.43,2537.2C1436.52,2540.08 1435.25,2542.84 1433.58,2545.48C1439.24,2546.09 1444.75,2547.1 1450.09,2548.56ZM1334.37,2514.13C1334.56,2514.26 1334.76,2514.36 1334.98,2514.45C1337.48,2515.49 1339.79,2517.51 1342.23,2519.35C1345.48,2521.79 1348.89,2523.93 1352.67,2524.57C1352.95,2524.61 1353.23,2524.63 1353.51,2524.62C1354.18,2524.66 1354.85,2524.69 1355.53,2524.64C1357.66,2524.49 1359.75,2524.15 1361.93,2523.44C1365.81,2522.18 1369.51,2520.25 1373.54,2517.36C1369.78,2518.11 1366.51,2518.31 1363.25,2518.23C1361.54,2518.19 1360.01,2517.94 1358.44,2517.71C1357.22,2517.53 1356.07,2517.28 1354.95,2516.96C1354.65,2516.83 1354.33,2516.73 1354,2516.68C1351.44,2516.24 1349.23,2514.61 1347.04,2512.95C1344.04,2510.7 1341.11,2508.33 1338.04,2507.06C1337.79,2506.95 1337.53,2506.88 1337.26,2506.83C1335.63,2506.35 1334.05,2505.95 1332.47,2505.83C1329.49,2505.6 1326.72,2505.83 1324.02,2506.66C1319.89,2507.91 1316.24,2510.11 1312.77,2513.45C1316.83,2511.73 1320.64,2511.06 1324.59,2511.24C1326.79,2511.35 1328.84,2511.95 1331.03,2512.71C1332.14,2513.1 1333.25,2513.57 1334.37,2514.13Z"/></g></g></svg>