<svg xmlns="http://www.w3.org/2000/svg" width="299.245" height="67.723999" viewBox="0 0 79.175236 17.918642"><g fill="#fa2828"><path d="M6.83 8.884c1.907 0 3.02-1.138 3.02-2.622v-.05c0-1.707-1.188-2.624-3.092-2.624H3.813v5.296zM0 2.054A1.89 1.89 0 0 1 1.906.15h5.173c4.133 0 6.632 2.45 6.632 5.989v.05c0 4.008-3.118 6.088-7.003 6.088H3.813v3.588a1.892 1.892 0 0 1-1.907 1.906A1.892 1.892 0 0 1 0 15.864ZM23.82 10.37l-2.4-5.718-2.402 5.718Zm-10.716 4.8 6.038-13.635c.422-.941 1.188-1.51 2.229-1.51h.221c1.04 0 1.782.569 2.204 1.51l6.039 13.636c.124.273.197.52.197.767 0 1.015-.791 1.832-1.806 1.832-.891 0-1.485-.52-1.832-1.312l-1.163-2.723h-7.622l-1.213 2.847c-.323.743-.966 1.188-1.757 1.188-.99 0-1.758-.793-1.758-1.782 0-.273.099-.544.223-.817M34.062 10.939 28.47 3.342C28.197 2.97 28 2.525 28 1.98 28 .966 28.841.15 29.905.15c.867 0 1.41.47 1.88 1.163l4.208 6.063 4.282-6.113c.47-.693 1.04-1.138 1.831-1.138 1.163 0 1.856.816 1.856 1.856 0 .52-.247.99-.495 1.337l-5.593 7.548v4.999a1.892 1.892 0 0 1-1.906 1.906 1.892 1.892 0 0 1-1.906-1.906zM44.078 9.01v-.051C44.078 4.034 47.79 0 53.11 0c2.599 0 4.356.693 5.792 1.757.395.298.743.842.743 1.51 0 1.04-.842 1.857-1.881 1.857-.52 0-.867-.199-1.14-.372-1.062-.791-2.177-1.238-3.539-1.238-2.92 0-5.023 2.427-5.023 5.396v.049c0 2.97 2.053 5.446 5.023 5.446 1.61 0 2.674-.496 3.762-1.362a1.783 1.783 0 0 1 1.14-.422c.964 0 1.78.793 1.78 1.759 0 .594-.296 1.064-.642 1.36-1.56 1.361-3.391 2.179-6.162 2.179-5.1 0-8.886-3.936-8.886-8.91M75.191 9.01v-.051c0-2.97-2.177-5.445-5.246-5.445-3.07 0-5.198 2.427-5.198 5.396v.049c0 2.97 2.179 5.446 5.246 5.446 3.07 0 5.198-2.426 5.198-5.395m-14.428 0v-.051c0-4.925 3.885-8.959 9.23-8.959 5.347 0 9.182 3.985 9.182 8.91v.049c0 4.925-3.885 8.96-9.23 8.96-5.347 0-9.182-3.986-9.182-8.91"/></g></svg>