<svg xmlns="http://www.w3.org/2000/svg" width="97" height="26" fill="none" viewBox="0 0 97 26"><g fill="#18268B" clip-path="url(#a)"><path d="m0 20.516 7.439-9.171c1.351-1.566 2.417-2.71 3.768-4.135v-.096H.56V1.413h19.588V5.74l-7.101 8.794c-1.306 1.521-2.514 2.991-3.866 4.276v.096h11.357v5.752H0V20.516ZM30.581 15.333c.436 3.048 3.002 4.422 6.432 4.422 2.053 0 3.775-.62 5.445-1.476l2.71 4.282c-3.77 2.09-5.822 2.563-9.012 2.563-8.017 0-12.325-5.394-12.325-11.837 0-6.442 3.54-12.399 11.935-12.399 6.796 0 10.532 5.305 10.532 11.6 0 1.234-.143 2.327-.24 2.851H30.58v-.006Zm9.24-4.94c0-1.759-1.261-4.456-4.646-4.456-3.093 0-4.45 2.512-4.646 4.455h9.291ZM64.138 1.457c-1.884 0-4.19.167-5.62 2.199V1.413H51.19V24.65h7.341V13.435c0-.57.046-1.138.143-1.617.481-2.237 2.32-3.663 5.022-3.663h5.568V1.553c-4.119-.096-4.457-.096-5.132-.096h.006ZM85.091 12.642c0 .55.5.71 1.007.71 1.079 0 1.319-.831 1.319-1.937-.318.198-.903.237-1.397.364-.507.115-.929.326-.929.863ZM78.594 7.286h-1.546v2.307h1.546c.76 0 1.313-.28 1.313-1.13 0-.85-.566-1.183-1.313-1.183v.006Z"/><path d="m96.727 10.354-1.787 4.838c-.545 1.49-1.357 1.777-2.884 1.777h-.942l-.117-1.905h.786c.52 0 .903-.287.903-.76 0-.364-.435-1.413-.572-1.777l-1.78-4.723h2.391l1.3 4.16h.025l1.306-4.16h.54C93.856 3.214 89.197 0 83.786 0 76.495 0 70.57 5.829 70.57 13s5.926 13 13.215 13C91.075 26 97 20.171 97 13c0-.908-.097-1.79-.273-2.646Zm-17.763 1.125h-1.916v3.112h-2.365V5.337h4.281c1.748 0 3.275.748 3.275 2.959 0 2.211-1.215 3.183-3.275 3.183Zm8.628 3.112a2.664 2.664 0 0 1-.13-.639c-.584.601-1.448.838-2.273.838-1.32 0-2.352-.652-2.352-2.052 0-2.211 2.449-2.039 4.015-2.352.383-.077.597-.211.597-.626 0-.512-.623-.703-1.091-.703-.624 0-1.026.274-1.13.85h-2.112c.039-.889.468-1.464 1.079-1.816.61-.338 1.41-.473 2.196-.473 1.637 0 3.215.352 3.215 2.276v2.972c0 .575 0 1.201.267 1.738h-2.274l-.007-.013Z"/></g><defs><clipPath id="a"><path fill="#fff" d="M0 0h97v26H0z"/></clipPath></defs></svg>